<?xml version="1.0" encoding="utf-8" standalone="no"?>
<!DOCTYPE svg PUBLIC "-//W3C//DTD SVG 1.1//EN"
  "http://www.w3.org/Graphics/SVG/1.1/DTD/svg11.dtd">
<!-- Created with matplotlib (https://matplotlib.org/) -->
<svg height="288pt" version="1.1" viewBox="0 0 432 288" width="432pt" xmlns="http://www.w3.org/2000/svg" xmlns:xlink="http://www.w3.org/1999/xlink">
 <defs>
  <style type="text/css">
*{stroke-linecap:butt;stroke-linejoin:round;}
  </style>
 </defs>
 <g id="figure_1">
  <g id="patch_1">
   <path d="M 0 288 
L 432 288 
L 432 0 
L 0 0 
z
" style="fill:#ffffff;"/>
  </g>
  <g id="axes_1">
   <g id="patch_2">
    <path d="M 54 252 
L 388.8 252 
L 388.8 34.56 
L 54 34.56 
z
" style="fill:#ffffff;"/>
   </g>
   <g id="matplotlib.axis_1">
    <g id="xtick_1">
     <g id="line2d_1">
      <path clip-path="url(#p1dea9d2706)" d="M 54 252 
L 54 34.56 
" style="fill:none;stroke:#b0b0b0;stroke-linecap:square;stroke-width:0.8;"/>
     </g>
     <g id="line2d_2">
      <defs>
       <path d="M 0 0 
L 0 3.5 
" id="mcab7d3b597" style="stroke:#000000;stroke-width:0.8;"/>
      </defs>
      <g>
       <use style="stroke:#000000;stroke-width:0.8;" x="54" xlink:href="#mcab7d3b597" y="252"/>
      </g>
     </g>
     <g id="text_1">
      <!-- 41500 -->
      <defs>
       <path d="M 37.796875 64.3125 
L 12.890625 25.390625 
L 37.796875 25.390625 
z
M 35.203125 72.90625 
L 47.609375 72.90625 
L 47.609375 25.390625 
L 58.015625 25.390625 
L 58.015625 17.1875 
L 47.609375 17.1875 
L 47.609375 0 
L 37.796875 0 
L 37.796875 17.1875 
L 4.890625 17.1875 
L 4.890625 26.703125 
z
" id="DejaVuSans-52"/>
       <path d="M 12.40625 8.296875 
L 28.515625 8.296875 
L 28.515625 63.921875 
L 10.984375 60.40625 
L 10.984375 69.390625 
L 28.421875 72.90625 
L 38.28125 72.90625 
L 38.28125 8.296875 
L 54.390625 8.296875 
L 54.390625 0 
L 12.40625 0 
z
" id="DejaVuSans-49"/>
       <path d="M 10.796875 72.90625 
L 49.515625 72.90625 
L 49.515625 64.59375 
L 19.828125 64.59375 
L 19.828125 46.734375 
Q 21.96875 47.46875 24.109375 47.828125 
Q 26.265625 48.1875 28.421875 48.1875 
Q 40.625 48.1875 47.75 41.5 
Q 54.890625 34.8125 54.890625 23.390625 
Q 54.890625 11.625 47.5625 5.09375 
Q 40.234375 -1.421875 26.90625 -1.421875 
Q 22.3125 -1.421875 17.546875 -0.640625 
Q 12.796875 0.140625 7.71875 1.703125 
L 7.71875 11.625 
Q 12.109375 9.234375 16.796875 8.0625 
Q 21.484375 6.890625 26.703125 6.890625 
Q 35.15625 6.890625 40.078125 11.328125 
Q 45.015625 15.765625 45.015625 23.390625 
Q 45.015625 31 40.078125 35.4375 
Q 35.15625 39.890625 26.703125 39.890625 
Q 22.75 39.890625 18.8125 39.015625 
Q 14.890625 38.140625 10.796875 36.28125 
z
" id="DejaVuSans-53"/>
       <path d="M 31.78125 66.40625 
Q 24.171875 66.40625 20.328125 58.90625 
Q 16.5 51.421875 16.5 36.375 
Q 16.5 21.390625 20.328125 13.890625 
Q 24.171875 6.390625 31.78125 6.390625 
Q 39.453125 6.390625 43.28125 13.890625 
Q 47.125 21.390625 47.125 36.375 
Q 47.125 51.421875 43.28125 58.90625 
Q 39.453125 66.40625 31.78125 66.40625 
z
M 31.78125 74.21875 
Q 44.046875 74.21875 50.515625 64.515625 
Q 56.984375 54.828125 56.984375 36.375 
Q 56.984375 17.96875 50.515625 8.265625 
Q 44.046875 -1.421875 31.78125 -1.421875 
Q 19.53125 -1.421875 13.0625 8.265625 
Q 6.59375 17.96875 6.59375 36.375 
Q 6.59375 54.828125 13.0625 64.515625 
Q 19.53125 74.21875 31.78125 74.21875 
z
" id="DejaVuSans-48"/>
      </defs>
      <g transform="translate(38.09375 266.598437)scale(0.1 -0.1)">
       <use xlink:href="#DejaVuSans-52"/>
       <use x="63.623047" xlink:href="#DejaVuSans-49"/>
       <use x="127.246094" xlink:href="#DejaVuSans-53"/>
       <use x="190.869141" xlink:href="#DejaVuSans-48"/>
       <use x="254.492188" xlink:href="#DejaVuSans-48"/>
      </g>
     </g>
    </g>
    <g id="xtick_2">
     <g id="line2d_3">
      <path clip-path="url(#p1dea9d2706)" d="M 120.96 252 
L 120.96 34.56 
" style="fill:none;stroke:#b0b0b0;stroke-linecap:square;stroke-width:0.8;"/>
     </g>
     <g id="line2d_4">
      <g>
       <use style="stroke:#000000;stroke-width:0.8;" x="120.96" xlink:href="#mcab7d3b597" y="252"/>
      </g>
     </g>
     <g id="text_2">
      <!-- 41600 -->
      <defs>
       <path d="M 33.015625 40.375 
Q 26.375 40.375 22.484375 35.828125 
Q 18.609375 31.296875 18.609375 23.390625 
Q 18.609375 15.53125 22.484375 10.953125 
Q 26.375 6.390625 33.015625 6.390625 
Q 39.65625 6.390625 43.53125 10.953125 
Q 47.40625 15.53125 47.40625 23.390625 
Q 47.40625 31.296875 43.53125 35.828125 
Q 39.65625 40.375 33.015625 40.375 
z
M 52.59375 71.296875 
L 52.59375 62.3125 
Q 48.875 64.0625 45.09375 64.984375 
Q 41.3125 65.921875 37.59375 65.921875 
Q 27.828125 65.921875 22.671875 59.328125 
Q 17.53125 52.734375 16.796875 39.40625 
Q 19.671875 43.65625 24.015625 45.921875 
Q 28.375 48.1875 33.59375 48.1875 
Q 44.578125 48.1875 50.953125 41.515625 
Q 57.328125 34.859375 57.328125 23.390625 
Q 57.328125 12.15625 50.6875 5.359375 
Q 44.046875 -1.421875 33.015625 -1.421875 
Q 20.359375 -1.421875 13.671875 8.265625 
Q 6.984375 17.96875 6.984375 36.375 
Q 6.984375 53.65625 15.1875 63.9375 
Q 23.390625 74.21875 37.203125 74.21875 
Q 40.921875 74.21875 44.703125 73.484375 
Q 48.484375 72.75 52.59375 71.296875 
z
" id="DejaVuSans-54"/>
      </defs>
      <g transform="translate(105.05375 266.598437)scale(0.1 -0.1)">
       <use xlink:href="#DejaVuSans-52"/>
       <use x="63.623047" xlink:href="#DejaVuSans-49"/>
       <use x="127.246094" xlink:href="#DejaVuSans-54"/>
       <use x="190.869141" xlink:href="#DejaVuSans-48"/>
       <use x="254.492188" xlink:href="#DejaVuSans-48"/>
      </g>
     </g>
    </g>
    <g id="xtick_3">
     <g id="line2d_5">
      <path clip-path="url(#p1dea9d2706)" d="M 187.92 252 
L 187.92 34.56 
" style="fill:none;stroke:#b0b0b0;stroke-linecap:square;stroke-width:0.8;"/>
     </g>
     <g id="line2d_6">
      <g>
       <use style="stroke:#000000;stroke-width:0.8;" x="187.92" xlink:href="#mcab7d3b597" y="252"/>
      </g>
     </g>
     <g id="text_3">
      <!-- 41700 -->
      <defs>
       <path d="M 8.203125 72.90625 
L 55.078125 72.90625 
L 55.078125 68.703125 
L 28.609375 0 
L 18.3125 0 
L 43.21875 64.59375 
L 8.203125 64.59375 
z
" id="DejaVuSans-55"/>
      </defs>
      <g transform="translate(172.01375 266.598437)scale(0.1 -0.1)">
       <use xlink:href="#DejaVuSans-52"/>
       <use x="63.623047" xlink:href="#DejaVuSans-49"/>
       <use x="127.246094" xlink:href="#DejaVuSans-55"/>
       <use x="190.869141" xlink:href="#DejaVuSans-48"/>
       <use x="254.492188" xlink:href="#DejaVuSans-48"/>
      </g>
     </g>
    </g>
    <g id="xtick_4">
     <g id="line2d_7">
      <path clip-path="url(#p1dea9d2706)" d="M 254.88 252 
L 254.88 34.56 
" style="fill:none;stroke:#b0b0b0;stroke-linecap:square;stroke-width:0.8;"/>
     </g>
     <g id="line2d_8">
      <g>
       <use style="stroke:#000000;stroke-width:0.8;" x="254.88" xlink:href="#mcab7d3b597" y="252"/>
      </g>
     </g>
     <g id="text_4">
      <!-- 41800 -->
      <defs>
       <path d="M 31.78125 34.625 
Q 24.75 34.625 20.71875 30.859375 
Q 16.703125 27.09375 16.703125 20.515625 
Q 16.703125 13.921875 20.71875 10.15625 
Q 24.75 6.390625 31.78125 6.390625 
Q 38.8125 6.390625 42.859375 10.171875 
Q 46.921875 13.96875 46.921875 20.515625 
Q 46.921875 27.09375 42.890625 30.859375 
Q 38.875 34.625 31.78125 34.625 
z
M 21.921875 38.8125 
Q 15.578125 40.375 12.03125 44.71875 
Q 8.5 49.078125 8.5 55.328125 
Q 8.5 64.0625 14.71875 69.140625 
Q 20.953125 74.21875 31.78125 74.21875 
Q 42.671875 74.21875 48.875 69.140625 
Q 55.078125 64.0625 55.078125 55.328125 
Q 55.078125 49.078125 51.53125 44.71875 
Q 48 40.375 41.703125 38.8125 
Q 48.828125 37.15625 52.796875 32.3125 
Q 56.78125 27.484375 56.78125 20.515625 
Q 56.78125 9.90625 50.3125 4.234375 
Q 43.84375 -1.421875 31.78125 -1.421875 
Q 19.734375 -1.421875 13.25 4.234375 
Q 6.78125 9.90625 6.78125 20.515625 
Q 6.78125 27.484375 10.78125 32.3125 
Q 14.796875 37.15625 21.921875 38.8125 
z
M 18.3125 54.390625 
Q 18.3125 48.734375 21.84375 45.5625 
Q 25.390625 42.390625 31.78125 42.390625 
Q 38.140625 42.390625 41.71875 45.5625 
Q 45.3125 48.734375 45.3125 54.390625 
Q 45.3125 60.0625 41.71875 63.234375 
Q 38.140625 66.40625 31.78125 66.40625 
Q 25.390625 66.40625 21.84375 63.234375 
Q 18.3125 60.0625 18.3125 54.390625 
z
" id="DejaVuSans-56"/>
      </defs>
      <g transform="translate(238.97375 266.598437)scale(0.1 -0.1)">
       <use xlink:href="#DejaVuSans-52"/>
       <use x="63.623047" xlink:href="#DejaVuSans-49"/>
       <use x="127.246094" xlink:href="#DejaVuSans-56"/>
       <use x="190.869141" xlink:href="#DejaVuSans-48"/>
       <use x="254.492188" xlink:href="#DejaVuSans-48"/>
      </g>
     </g>
    </g>
    <g id="xtick_5">
     <g id="line2d_9">
      <path clip-path="url(#p1dea9d2706)" d="M 321.84 252 
L 321.84 34.56 
" style="fill:none;stroke:#b0b0b0;stroke-linecap:square;stroke-width:0.8;"/>
     </g>
     <g id="line2d_10">
      <g>
       <use style="stroke:#000000;stroke-width:0.8;" x="321.84" xlink:href="#mcab7d3b597" y="252"/>
      </g>
     </g>
     <g id="text_5">
      <!-- 41900 -->
      <defs>
       <path d="M 10.984375 1.515625 
L 10.984375 10.5 
Q 14.703125 8.734375 18.5 7.8125 
Q 22.3125 6.890625 25.984375 6.890625 
Q 35.75 6.890625 40.890625 13.453125 
Q 46.046875 20.015625 46.78125 33.40625 
Q 43.953125 29.203125 39.59375 26.953125 
Q 35.25 24.703125 29.984375 24.703125 
Q 19.046875 24.703125 12.671875 31.3125 
Q 6.296875 37.9375 6.296875 49.421875 
Q 6.296875 60.640625 12.9375 67.421875 
Q 19.578125 74.21875 30.609375 74.21875 
Q 43.265625 74.21875 49.921875 64.515625 
Q 56.59375 54.828125 56.59375 36.375 
Q 56.59375 19.140625 48.40625 8.859375 
Q 40.234375 -1.421875 26.421875 -1.421875 
Q 22.703125 -1.421875 18.890625 -0.6875 
Q 15.09375 0.046875 10.984375 1.515625 
z
M 30.609375 32.421875 
Q 37.25 32.421875 41.125 36.953125 
Q 45.015625 41.5 45.015625 49.421875 
Q 45.015625 57.28125 41.125 61.84375 
Q 37.25 66.40625 30.609375 66.40625 
Q 23.96875 66.40625 20.09375 61.84375 
Q 16.21875 57.28125 16.21875 49.421875 
Q 16.21875 41.5 20.09375 36.953125 
Q 23.96875 32.421875 30.609375 32.421875 
z
" id="DejaVuSans-57"/>
      </defs>
      <g transform="translate(305.93375 266.598437)scale(0.1 -0.1)">
       <use xlink:href="#DejaVuSans-52"/>
       <use x="63.623047" xlink:href="#DejaVuSans-49"/>
       <use x="127.246094" xlink:href="#DejaVuSans-57"/>
       <use x="190.869141" xlink:href="#DejaVuSans-48"/>
       <use x="254.492188" xlink:href="#DejaVuSans-48"/>
      </g>
     </g>
    </g>
    <g id="xtick_6">
     <g id="line2d_11">
      <path clip-path="url(#p1dea9d2706)" d="M 388.8 252 
L 388.8 34.56 
" style="fill:none;stroke:#b0b0b0;stroke-linecap:square;stroke-width:0.8;"/>
     </g>
     <g id="line2d_12">
      <g>
       <use style="stroke:#000000;stroke-width:0.8;" x="388.8" xlink:href="#mcab7d3b597" y="252"/>
      </g>
     </g>
     <g id="text_6">
      <!-- 42000 -->
      <defs>
       <path d="M 19.1875 8.296875 
L 53.609375 8.296875 
L 53.609375 0 
L 7.328125 0 
L 7.328125 8.296875 
Q 12.9375 14.109375 22.625 23.890625 
Q 32.328125 33.6875 34.8125 36.53125 
Q 39.546875 41.84375 41.421875 45.53125 
Q 43.3125 49.21875 43.3125 52.78125 
Q 43.3125 58.59375 39.234375 62.25 
Q 35.15625 65.921875 28.609375 65.921875 
Q 23.96875 65.921875 18.8125 64.3125 
Q 13.671875 62.703125 7.8125 59.421875 
L 7.8125 69.390625 
Q 13.765625 71.78125 18.9375 73 
Q 24.125 74.21875 28.421875 74.21875 
Q 39.75 74.21875 46.484375 68.546875 
Q 53.21875 62.890625 53.21875 53.421875 
Q 53.21875 48.921875 51.53125 44.890625 
Q 49.859375 40.875 45.40625 35.40625 
Q 44.1875 33.984375 37.640625 27.21875 
Q 31.109375 20.453125 19.1875 8.296875 
z
" id="DejaVuSans-50"/>
      </defs>
      <g transform="translate(372.89375 266.598437)scale(0.1 -0.1)">
       <use xlink:href="#DejaVuSans-52"/>
       <use x="63.623047" xlink:href="#DejaVuSans-50"/>
       <use x="127.246094" xlink:href="#DejaVuSans-48"/>
       <use x="190.869141" xlink:href="#DejaVuSans-48"/>
       <use x="254.492188" xlink:href="#DejaVuSans-48"/>
      </g>
     </g>
    </g>
   </g>
   <g id="matplotlib.axis_2">
    <g id="ytick_1">
     <g id="line2d_13">
      <path clip-path="url(#p1dea9d2706)" d="M 54 242.116364 
L 388.8 242.116364 
" style="fill:none;stroke:#b0b0b0;stroke-linecap:square;stroke-width:0.8;"/>
     </g>
     <g id="line2d_14">
      <defs>
       <path d="M 0 0 
L -3.5 0 
" id="m229e20cc18" style="stroke:#000000;stroke-width:0.8;"/>
      </defs>
      <g>
       <use style="stroke:#000000;stroke-width:0.8;" x="54" xlink:href="#m229e20cc18" y="242.116364"/>
      </g>
     </g>
     <g id="text_7">
      <!-- 0.0 -->
      <defs>
       <path d="M 10.6875 12.40625 
L 21 12.40625 
L 21 0 
L 10.6875 0 
z
" id="DejaVuSans-46"/>
      </defs>
      <g transform="translate(31.096875 245.915583)scale(0.1 -0.1)">
       <use xlink:href="#DejaVuSans-48"/>
       <use x="63.623047" xlink:href="#DejaVuSans-46"/>
       <use x="95.410156" xlink:href="#DejaVuSans-48"/>
      </g>
     </g>
    </g>
    <g id="ytick_2">
     <g id="line2d_15">
      <path clip-path="url(#p1dea9d2706)" d="M 54 202.581819 
L 388.8 202.581819 
" style="fill:none;stroke:#b0b0b0;stroke-linecap:square;stroke-width:0.8;"/>
     </g>
     <g id="line2d_16">
      <g>
       <use style="stroke:#000000;stroke-width:0.8;" x="54" xlink:href="#m229e20cc18" y="202.581819"/>
      </g>
     </g>
     <g id="text_8">
      <!-- 0.2 -->
      <g transform="translate(31.096875 206.381038)scale(0.1 -0.1)">
       <use xlink:href="#DejaVuSans-48"/>
       <use x="63.623047" xlink:href="#DejaVuSans-46"/>
       <use x="95.410156" xlink:href="#DejaVuSans-50"/>
      </g>
     </g>
    </g>
    <g id="ytick_3">
     <g id="line2d_17">
      <path clip-path="url(#p1dea9d2706)" d="M 54 163.047273 
L 388.8 163.047273 
" style="fill:none;stroke:#b0b0b0;stroke-linecap:square;stroke-width:0.8;"/>
     </g>
     <g id="line2d_18">
      <g>
       <use style="stroke:#000000;stroke-width:0.8;" x="54" xlink:href="#m229e20cc18" y="163.047273"/>
      </g>
     </g>
     <g id="text_9">
      <!-- 0.4 -->
      <g transform="translate(31.096875 166.846492)scale(0.1 -0.1)">
       <use xlink:href="#DejaVuSans-48"/>
       <use x="63.623047" xlink:href="#DejaVuSans-46"/>
       <use x="95.410156" xlink:href="#DejaVuSans-52"/>
      </g>
     </g>
    </g>
    <g id="ytick_4">
     <g id="line2d_19">
      <path clip-path="url(#p1dea9d2706)" d="M 54 123.512728 
L 388.8 123.512728 
" style="fill:none;stroke:#b0b0b0;stroke-linecap:square;stroke-width:0.8;"/>
     </g>
     <g id="line2d_20">
      <g>
       <use style="stroke:#000000;stroke-width:0.8;" x="54" xlink:href="#m229e20cc18" y="123.512728"/>
      </g>
     </g>
     <g id="text_10">
      <!-- 0.6 -->
      <g transform="translate(31.096875 127.311946)scale(0.1 -0.1)">
       <use xlink:href="#DejaVuSans-48"/>
       <use x="63.623047" xlink:href="#DejaVuSans-46"/>
       <use x="95.410156" xlink:href="#DejaVuSans-54"/>
      </g>
     </g>
    </g>
    <g id="ytick_5">
     <g id="line2d_21">
      <path clip-path="url(#p1dea9d2706)" d="M 54 83.978182 
L 388.8 83.978182 
" style="fill:none;stroke:#b0b0b0;stroke-linecap:square;stroke-width:0.8;"/>
     </g>
     <g id="line2d_22">
      <g>
       <use style="stroke:#000000;stroke-width:0.8;" x="54" xlink:href="#m229e20cc18" y="83.978182"/>
      </g>
     </g>
     <g id="text_11">
      <!-- 0.8 -->
      <g transform="translate(31.096875 87.777401)scale(0.1 -0.1)">
       <use xlink:href="#DejaVuSans-48"/>
       <use x="63.623047" xlink:href="#DejaVuSans-46"/>
       <use x="95.410156" xlink:href="#DejaVuSans-56"/>
      </g>
     </g>
    </g>
    <g id="ytick_6">
     <g id="line2d_23">
      <path clip-path="url(#p1dea9d2706)" d="M 54 44.443636 
L 388.8 44.443636 
" style="fill:none;stroke:#b0b0b0;stroke-linecap:square;stroke-width:0.8;"/>
     </g>
     <g id="line2d_24">
      <g>
       <use style="stroke:#000000;stroke-width:0.8;" x="54" xlink:href="#m229e20cc18" y="44.443636"/>
      </g>
     </g>
     <g id="text_12">
      <!-- 1.0 -->
      <g transform="translate(31.096875 48.242855)scale(0.1 -0.1)">
       <use xlink:href="#DejaVuSans-49"/>
       <use x="63.623047" xlink:href="#DejaVuSans-46"/>
       <use x="95.410156" xlink:href="#DejaVuSans-48"/>
      </g>
     </g>
    </g>
   </g>
   <g id="line2d_25">
    <path clip-path="url(#p1dea9d2706)" d="M 53.3304 74.204531 
L 55.3392 74.510014 
L 58.0176 74.716681 
L 62.0352 75.198935 
L 62.7048 75.548359 
L 63.3744 75.54962 
L 64.7136 75.911613 
L 69.4008 76.40528 
L 70.0704 76.642428 
L 70.74 76.644435 
L 72.0792 77.055116 
L 72.7488 77.061752 
L 75.4272 77.49335 
L 76.0968 77.497233 
L 77.436 77.698317 
L 78.1056 77.699582 
L 79.4448 77.927388 
L 80.784 77.981898 
L 81.4536 78.350756 
L 86.8104 78.982162 
L 87.48 79.258119 
L 90.828 79.457387 
L 92.8368 79.631015 
L 93.5064 79.924448 
L 94.8456 80.029972 
L 95.5152 80.270553 
L 100.2024 80.751444 
L 101.5416 80.783998 
L 102.2112 81.159061 
L 103.5504 81.363644 
L 104.8896 81.568235 
L 106.2288 82.105015 
L 110.916 82.42314 
L 112.2552 82.54412 
L 115.6032 82.798086 
L 116.9424 83.100369 
L 117.612 83.176848 
L 118.2816 83.409359 
L 118.9512 83.422386 
L 119.6208 83.700956 
L 123.6384 83.972904 
L 125.6472 84.34269 
L 128.9952 84.510001 
L 131.6736 84.703206 
L 133.0128 84.74533 
L 135.0216 85.004657 
L 135.6912 85.031283 
L 136.3608 85.371945 
L 141.7176 86.124934 
L 144.396 86.390521 
L 145.0656 86.529629 
L 145.7352 87.235354 
L 146.4048 87.288825 
L 147.0744 87.462097 
L 147.744 87.493515 
L 148.4136 88.340297 
L 150.4224 88.948208 
L 151.7616 89.809338 
L 154.44 90.416066 
L 156.4488 90.547388 
L 157.1184 90.689507 
L 159.1272 90.776147 
L 159.7968 91.045753 
L 160.4664 91.077875 
L 161.136 91.634363 
L 162.4752 91.831996 
L 165.1536 92.209769 
L 165.8232 92.599757 
L 166.4928 92.816545 
L 167.1624 92.845662 
L 168.5016 93.154532 
L 169.8408 93.304717 
L 170.5104 93.572352 
L 171.18 93.705704 
L 171.8496 93.965585 
L 172.5192 94.030868 
L 173.1888 94.540579 
L 175.1976 94.645383 
L 177.2064 95.547295 
L 177.876 95.562745 
L 179.2152 95.911724 
L 181.224 96.092049 
L 181.8936 96.163804 
L 182.5632 96.392178 
L 183.9024 96.557966 
L 185.2416 97.183954 
L 186.5808 97.247023 
L 187.2504 97.567996 
L 188.5896 97.606629 
L 189.2592 98.039602 
L 191.268 98.588252 
L 192.6072 99.234261 
L 193.9464 99.329545 
L 194.616 99.688855 
L 195.9552 99.854712 
L 197.2944 100.073318 
L 198.6336 100.097899 
L 199.3032 100.273531 
L 200.6424 100.462565 
L 202.6512 101.102254 
L 203.3208 101.183132 
L 203.9904 102.045319 
L 204.66 102.157668 
L 205.3296 102.573354 
L 207.3384 102.812914 
L 208.008 103.285067 
L 210.0168 103.314172 
L 211.356 103.558284 
L 212.0256 104.112573 
L 213.3648 104.244401 
L 214.0344 105.121901 
L 214.704 105.161691 
L 215.3736 105.357674 
L 216.7128 106.271386 
L 219.3912 106.509177 
L 220.0608 107.13573 
L 221.4 107.174503 
L 223.4088 107.478267 
L 224.0784 107.911319 
L 224.748 108.189869 
L 228.096 108.448346 
L 228.7656 108.602293 
L 229.4352 108.897953 
L 230.1048 108.904312 
L 230.7744 109.173093 
L 231.444 109.745178 
L 232.1136 109.820807 
L 232.7832 110.266461 
L 233.4528 110.959126 
L 234.792 112.652797 
L 235.4616 112.958486 
L 236.1312 113.575621 
L 236.8008 113.65807 
L 237.4704 114.004582 
L 239.4792 114.449571 
L 240.1488 114.911367 
L 240.8184 115.603336 
L 241.488 115.724027 
L 242.1576 116.518307 
L 243.4968 117.23953 
L 244.1664 117.344469 
L 244.836 117.716667 
L 245.5056 117.733676 
L 246.1752 118.193908 
L 246.8448 118.227918 
L 247.5144 118.438101 
L 248.184 118.770889 
L 248.8536 119.643492 
L 249.5232 121.220495 
L 250.1928 121.680064 
L 250.8624 121.90723 
L 251.532 122.285111 
L 252.2016 123.036297 
L 252.8712 123.093523 
L 253.5408 123.861806 
L 254.2104 124.006969 
L 254.88 124.426944 
L 255.5496 125.296131 
L 256.2192 125.353001 
L 256.8888 125.71154 
L 257.5584 126.620736 
L 258.228 126.768654 
L 258.8976 126.789469 
L 260.2368 127.318362 
L 260.9064 127.494113 
L 261.576 127.500389 
L 262.9152 127.695344 
L 264.924 128.041528 
L 265.5936 128.054859 
L 266.2632 128.191681 
L 266.9328 128.893379 
L 270.2808 129.638428 
L 270.9504 129.963718 
L 271.62 130.587454 
L 272.2896 131.393255 
L 273.6288 131.653859 
L 274.2984 132.666289 
L 274.968 132.834104 
L 275.6376 133.276054 
L 276.3072 134.280052 
L 276.9768 134.904587 
L 277.6464 135.086229 
L 278.316 136.370133 
L 280.9944 137.183576 
L 281.664 137.19852 
L 282.3336 137.561832 
L 283.0032 137.742693 
L 283.6728 137.780358 
L 285.6816 138.535222 
L 287.0208 138.74183 
L 287.6904 139.211303 
L 288.36 139.979095 
L 289.0296 140.17455 
L 289.6992 140.611883 
L 290.3688 141.50752 
L 291.0384 141.599644 
L 292.3776 142.559523 
L 293.0472 142.947297 
L 295.056 143.700796 
L 295.7256 144.087011 
L 296.3952 144.097662 
L 297.0648 144.241111 
L 297.7344 146.064517 
L 298.404 146.980853 
L 299.0736 149.402963 
L 299.7432 150.232931 
L 300.4128 150.234234 
L 301.752 150.784725 
L 302.4216 151.075831 
L 303.0912 151.595274 
L 303.7608 153.107067 
L 305.7696 154.431464 
L 306.4392 154.584212 
L 307.1088 155.542721 
L 307.7784 155.803596 
L 308.448 157.289417 
L 309.1176 159.451318 
L 311.1264 159.716318 
L 311.796 159.842998 
L 312.4656 160.314981 
L 313.8048 160.943812 
L 315.144 161.13853 
L 315.8136 161.260351 
L 316.4832 161.893588 
L 317.1528 163.497358 
L 317.8224 165.461871 
L 318.492 166.147525 
L 319.1616 166.152127 
L 319.8312 166.911202 
L 321.1704 170.484492 
L 321.84 170.738937 
L 322.5096 170.805936 
L 323.1792 171.72241 
L 323.8488 173.144311 
L 324.5184 173.927595 
L 325.8576 174.991237 
L 326.5272 175.140487 
L 327.1968 176.172474 
L 327.8664 176.567218 
L 328.536 177.599082 
L 329.8752 177.670617 
L 331.2144 178.999468 
L 332.5536 179.91612 
L 333.2232 182.467551 
L 333.8928 182.633328 
L 334.5624 185.616901 
L 335.232 187.797539 
L 335.9016 188.616656 
L 336.5712 188.790776 
L 337.2408 189.497604 
L 337.9104 190.933163 
L 338.58 191.153133 
L 339.2496 192.599484 
L 339.9192 192.919256 
L 340.5888 193.554936 
L 341.2584 193.958378 
L 341.928 193.971756 
L 342.5976 194.869845 
L 344.6064 195.275188 
L 345.9456 197.323461 
L 346.6152 197.424802 
L 347.2848 199.074927 
L 347.9544 200.008683 
L 348.624 200.358946 
L 349.2936 201.681578 
L 349.9632 201.774972 
L 350.6328 202.787665 
L 351.3024 204.216033 
L 351.972 207.480102 
L 352.6416 207.583057 
L 353.9808 209.053762 
L 355.32 209.552461 
L 355.9896 210.089965 
L 356.6592 210.20436 
L 357.9984 211.325322 
L 358.668 211.561842 
L 359.3376 212.834807 
L 360.0072 213.04568 
L 360.6768 213.533795 
L 361.3464 214.795277 
L 362.016 214.857048 
L 362.6856 216.806151 
L 363.3552 217.111741 
L 364.0248 217.721355 
L 364.6944 218.073237 
L 365.364 219.075982 
L 366.0336 219.722082 
L 366.7032 220.149113 
L 367.3728 220.86199 
L 369.3816 221.162458 
L 370.0512 222.266646 
L 371.3904 222.343108 
L 372.06 223.379309 
L 372.7296 223.604553 
L 373.3992 224.438464 
L 374.0688 227.174451 
L 374.7384 231.241678 
L 375.408 231.487699 
L 376.0776 233.20677 
L 376.7472 234.268896 
L 377.4168 235.063645 
L 378.0864 235.306277 
L 378.756 235.784635 
L 380.0952 235.987495 
L 380.7648 236.328408 
L 381.4344 238.628154 
L 382.104 239.074717 
L 382.7736 239.134259 
L 383.4432 239.362239 
L 384.1128 240.88531 
L 384.7824 240.917156 
L 386.1216 242.001392 
L 388.1304 242.116364 
L 388.1304 242.116364 
" style="fill:none;stroke:#1f77b4;stroke-linecap:square;stroke-width:1.5;"/>
   </g>
   <g id="line2d_26">
    <path clip-path="url(#p1dea9d2706)" d="M 53.3304 74.204531 
L 55.3392 74.510014 
L 58.0176 74.716681 
L 62.0352 75.198935 
L 62.7048 75.548359 
L 63.3744 75.54962 
L 64.7136 75.911613 
L 69.4008 76.40528 
L 70.0704 76.642428 
L 70.74 76.644435 
L 72.0792 77.055116 
L 72.7488 77.061752 
L 75.4272 77.49335 
L 76.0968 77.497233 
L 77.436 77.698317 
L 78.1056 77.699582 
L 79.4448 77.927388 
L 80.784 77.981898 
L 81.4536 78.350756 
L 86.8104 78.982162 
L 87.48 79.258119 
L 90.828 79.457387 
L 92.8368 79.631015 
L 93.5064 79.924448 
L 94.8456 80.029972 
L 95.5152 80.270553 
L 100.2024 80.751444 
L 101.5416 80.783998 
L 102.2112 81.159061 
L 103.5504 81.363644 
L 104.8896 81.568235 
L 106.2288 82.105015 
L 110.916 82.42314 
L 112.2552 82.54412 
L 115.6032 82.798086 
L 116.9424 83.100369 
L 117.612 83.176848 
L 118.2816 83.409359 
L 118.9512 83.422386 
L 119.6208 83.700956 
L 123.6384 83.972904 
L 125.6472 84.34269 
L 128.9952 84.510001 
L 131.6736 84.703206 
L 133.0128 84.74533 
L 135.0216 85.004657 
L 135.6912 85.031283 
L 136.3608 85.371945 
L 141.7176 86.124934 
L 144.396 86.390521 
L 145.0656 86.529629 
L 145.7352 87.235354 
L 146.4048 87.288825 
L 147.0744 87.462097 
L 147.744 87.493515 
L 148.4136 88.340297 
L 150.4224 88.948208 
L 151.7616 89.809338 
L 154.44 90.416066 
L 156.4488 90.547388 
L 157.1184 90.689507 
L 159.1272 90.776147 
L 159.7968 91.045753 
L 160.4664 91.077875 
L 161.136 91.634363 
L 162.4752 91.831996 
L 165.1536 92.209769 
L 165.8232 92.599757 
L 166.4928 92.816545 
L 167.1624 92.845662 
L 168.5016 93.154532 
L 169.8408 93.304717 
L 170.5104 93.572352 
L 171.18 93.705704 
L 171.8496 93.965585 
L 172.5192 94.030868 
L 173.1888 94.540579 
L 175.1976 94.645383 
L 177.2064 95.547295 
L 177.876 95.562745 
L 179.2152 95.911724 
L 181.224 96.092049 
L 181.8936 96.163804 
L 182.5632 96.392178 
L 183.9024 96.557966 
L 185.2416 97.183954 
L 186.5808 97.247023 
L 187.2504 97.567996 
L 188.5896 97.606629 
L 189.2592 98.039602 
L 191.268 98.588252 
L 192.6072 99.234261 
L 193.9464 99.329545 
L 194.616 99.688855 
L 195.9552 99.854712 
L 197.2944 100.073318 
L 198.6336 100.097899 
L 199.3032 100.273531 
L 200.6424 100.462565 
L 202.6512 101.102254 
L 203.3208 101.183132 
L 203.9904 102.045319 
L 204.66 102.157668 
L 205.3296 102.573354 
L 207.3384 102.812914 
L 208.008 103.285067 
L 210.0168 103.314172 
L 211.356 103.558284 
L 212.0256 104.112573 
L 213.3648 104.244401 
L 214.0344 105.121901 
L 214.704 105.161691 
L 215.3736 105.357674 
L 216.7128 106.271386 
L 219.3912 106.509177 
L 220.0608 107.13573 
L 221.4 107.174503 
L 223.4088 107.478267 
L 224.0784 107.911319 
L 224.748 108.189869 
L 228.096 108.448346 
L 228.7656 108.602293 
L 229.4352 108.897953 
L 230.1048 108.904312 
L 230.7744 109.173093 
L 231.444 109.745178 
L 232.1136 109.820807 
L 232.7832 110.266461 
L 233.4528 110.959126 
L 234.792 112.652797 
L 235.4616 112.958486 
L 236.1312 113.575621 
L 236.8008 113.65807 
L 237.4704 114.004582 
L 239.4792 114.449571 
L 240.1488 114.911367 
L 240.8184 115.603336 
L 241.488 115.724027 
L 242.1576 116.518307 
L 243.4968 117.23953 
L 244.1664 117.344469 
L 244.836 117.716667 
L 245.5056 117.733676 
L 246.1752 118.193908 
L 246.8448 118.227918 
L 247.5144 118.438101 
L 248.184 118.770889 
L 248.8536 119.643492 
L 249.5232 121.220495 
L 250.1928 121.680064 
L 250.8624 121.90723 
L 251.532 122.285111 
L 252.2016 123.036297 
L 252.8712 123.093523 
L 253.5408 123.861806 
L 254.2104 124.006969 
L 254.88 124.426944 
L 255.5496 125.296131 
L 256.2192 125.353001 
L 256.8888 125.71154 
L 257.5584 126.620736 
L 258.228 126.768654 
L 258.8976 126.789469 
L 260.2368 127.318362 
L 260.9064 127.494113 
L 261.576 127.500389 
L 262.9152 127.695344 
L 264.924 128.041528 
L 265.5936 128.054859 
L 266.2632 128.191681 
L 266.9328 128.893379 
L 270.2808 129.638428 
L 270.9504 129.963718 
L 271.62 130.587454 
L 272.2896 131.393255 
L 273.6288 131.653859 
L 274.2984 132.666289 
L 274.968 132.834104 
L 275.6376 133.276054 
L 276.3072 134.280052 
L 276.9768 134.904587 
L 277.6464 135.086229 
L 278.316 136.370133 
L 280.9944 137.183576 
L 281.664 137.19852 
L 282.3336 137.561832 
L 283.0032 137.742693 
L 283.6728 137.780358 
L 285.6816 138.535222 
L 287.0208 138.74183 
L 287.6904 139.211303 
L 288.36 139.979095 
L 289.0296 140.17455 
L 289.6992 140.611883 
L 290.3688 141.50752 
L 291.0384 141.599644 
L 292.3776 142.559523 
L 293.0472 142.947297 
L 295.056 143.700796 
L 295.7256 144.087011 
L 296.3952 144.097662 
L 297.0648 144.241111 
L 297.7344 142.503257 
L 298.404 146.980853 
L 299.0736 149.402963 
L 299.7432 150.232931 
L 300.4128 138.483545 
L 301.0824 138.009828 
L 301.752 137.67684 
L 302.4216 151.075831 
L 303.0912 151.595274 
L 303.7608 153.107067 
L 304.4304 135.124103 
L 305.1 153.992842 
L 305.7696 154.431464 
L 306.4392 152.405902 
L 307.7784 131.147173 
L 308.448 137.072059 
L 309.1176 129.962625 
L 309.7872 159.50465 
L 310.4568 159.616875 
L 311.1264 127.436077 
L 311.796 129.506659 
L 312.4656 160.314981 
L 313.1352 157.191565 
L 313.8048 160.943812 
L 315.144 161.13853 
L 315.8136 161.260351 
L 316.4832 128.417033 
L 317.1528 130.859663 
L 317.8224 123.827561 
L 318.492 122.839664 
L 319.1616 138.351537 
L 319.8312 166.911202 
L 320.5008 168.722734 
L 321.1704 163.9212 
L 321.84 116.456851 
L 322.5096 117.472395 
L 323.1792 125.582223 
L 323.8488 118.145735 
L 324.5184 128.279441 
L 325.188 116.505605 
L 325.8576 117.031375 
L 326.5272 116.102123 
L 327.1968 118.501507 
L 327.8664 111.193467 
L 328.536 112.498298 
L 329.2056 177.638654 
L 329.8752 144.002514 
L 330.5448 123.676539 
L 331.2144 110.322718 
L 331.884 107.402124 
L 332.5536 153.880892 
L 333.2232 122.09318 
L 333.8928 148.319995 
L 334.5624 130.105587 
L 335.232 120.290544 
L 335.9016 98.062589 
L 336.5712 113.420693 
L 337.2408 157.797135 
L 337.9104 96.28916 
L 338.58 99.312341 
L 339.2496 96.839975 
L 339.9192 168.639628 
L 340.5888 106.764708 
L 341.2584 92.635443 
L 341.928 193.971756 
L 342.5976 98.906867 
L 343.2672 92.32907 
L 343.9368 92.333996 
L 344.6064 195.275188 
L 345.276 158.49033 
L 345.9456 90.939358 
L 346.6152 91.129349 
L 347.2848 123.034992 
L 347.9544 88.173932 
L 348.624 88.077025 
L 349.2936 84.923156 
L 349.9632 90.639022 
L 350.6328 195.890498 
L 351.3024 117.677735 
L 351.972 80.149162 
L 352.6416 79.311635 
L 353.3112 179.422699 
L 353.9808 79.05946 
L 354.6504 88.485338 
L 355.32 107.999991 
L 355.9896 115.79428 
L 356.6592 76.449771 
L 357.9984 89.95796 
L 358.668 98.904964 
L 359.3376 73.966422 
L 360.0072 108.260978 
L 360.6768 76.007336 
L 361.3464 94.537602 
L 362.016 71.778052 
L 362.6856 69.871195 
L 363.3552 93.6069 
L 364.0248 76.710934 
L 364.6944 91.949542 
L 365.364 71.98431 
L 366.0336 164.49933 
L 366.7032 136.465767 
L 367.3728 66.884935 
L 368.0424 65.600548 
L 368.712 70.634561 
L 369.3816 77.255839 
L 370.0512 65.262736 
L 370.7208 71.042083 
L 371.3904 65.877389 
L 372.06 100.892583 
L 372.7296 68.461571 
L 373.3992 92.142394 
L 374.0688 75.916021 
L 374.7384 87.338599 
L 375.408 57.122167 
L 376.0776 54.477366 
L 376.7472 63.629166 
L 377.4168 51.539316 
L 378.0864 74.137856 
L 378.756 50.844748 
L 379.4256 54.97639 
L 380.0952 51.035429 
L 380.7648 54.375624 
L 381.4344 48.458626 
L 382.104 51.654174 
L 382.7736 47.667619 
L 383.4432 51.094225 
L 384.1128 45.769842 
L 384.7824 45.658553 
L 385.452 45.084887 
L 386.1216 45.058325 
L 386.7912 44.519918 
L 388.1304 44.443684 
L 388.1304 44.443684 
" style="fill:none;stroke:#ff7f0e;stroke-linecap:square;stroke-width:1.5;"/>
   </g>
   <g id="patch_3">
    <path d="M 54 252 
L 54 34.56 
" style="fill:none;stroke:#000000;stroke-linecap:square;stroke-linejoin:miter;stroke-width:0.8;"/>
   </g>
   <g id="patch_4">
    <path d="M 388.8 252 
L 388.8 34.56 
" style="fill:none;stroke:#000000;stroke-linecap:square;stroke-linejoin:miter;stroke-width:0.8;"/>
   </g>
   <g id="patch_5">
    <path d="M 54 252 
L 388.8 252 
" style="fill:none;stroke:#000000;stroke-linecap:square;stroke-linejoin:miter;stroke-width:0.8;"/>
   </g>
   <g id="patch_6">
    <path d="M 54 34.56 
L 388.8 34.56 
" style="fill:none;stroke:#000000;stroke-linecap:square;stroke-linejoin:miter;stroke-width:0.8;"/>
   </g>
   <g id="legend_1">
    <g id="patch_7">
     <path d="M 61 71.91625 
L 114.7875 71.91625 
Q 116.7875 71.91625 116.7875 69.91625 
L 116.7875 41.56 
Q 116.7875 39.56 114.7875 39.56 
L 61 39.56 
Q 59 39.56 59 41.56 
L 59 69.91625 
Q 59 71.91625 61 71.91625 
z
" style="fill:#ffffff;opacity:0.8;stroke:#cccccc;stroke-linejoin:miter;"/>
    </g>
    <g id="line2d_27">
     <path d="M 63 47.658437 
L 83 47.658437 
" style="fill:none;stroke:#1f77b4;stroke-linecap:square;stroke-width:1.5;"/>
    </g>
    <g id="line2d_28"/>
    <g id="text_13">
     <!-- ans -->
     <defs>
      <path d="M 34.28125 27.484375 
Q 23.390625 27.484375 19.1875 25 
Q 14.984375 22.515625 14.984375 16.5 
Q 14.984375 11.71875 18.140625 8.90625 
Q 21.296875 6.109375 26.703125 6.109375 
Q 34.1875 6.109375 38.703125 11.40625 
Q 43.21875 16.703125 43.21875 25.484375 
L 43.21875 27.484375 
z
M 52.203125 31.203125 
L 52.203125 0 
L 43.21875 0 
L 43.21875 8.296875 
Q 40.140625 3.328125 35.546875 0.953125 
Q 30.953125 -1.421875 24.3125 -1.421875 
Q 15.921875 -1.421875 10.953125 3.296875 
Q 6 8.015625 6 15.921875 
Q 6 25.140625 12.171875 29.828125 
Q 18.359375 34.515625 30.609375 34.515625 
L 43.21875 34.515625 
L 43.21875 35.40625 
Q 43.21875 41.609375 39.140625 45 
Q 35.0625 48.390625 27.6875 48.390625 
Q 23 48.390625 18.546875 47.265625 
Q 14.109375 46.140625 10.015625 43.890625 
L 10.015625 52.203125 
Q 14.9375 54.109375 19.578125 55.046875 
Q 24.21875 56 28.609375 56 
Q 40.484375 56 46.34375 49.84375 
Q 52.203125 43.703125 52.203125 31.203125 
z
" id="DejaVuSans-97"/>
      <path d="M 54.890625 33.015625 
L 54.890625 0 
L 45.90625 0 
L 45.90625 32.71875 
Q 45.90625 40.484375 42.875 44.328125 
Q 39.84375 48.1875 33.796875 48.1875 
Q 26.515625 48.1875 22.3125 43.546875 
Q 18.109375 38.921875 18.109375 30.90625 
L 18.109375 0 
L 9.078125 0 
L 9.078125 54.6875 
L 18.109375 54.6875 
L 18.109375 46.1875 
Q 21.34375 51.125 25.703125 53.5625 
Q 30.078125 56 35.796875 56 
Q 45.21875 56 50.046875 50.171875 
Q 54.890625 44.34375 54.890625 33.015625 
z
" id="DejaVuSans-110"/>
      <path d="M 44.28125 53.078125 
L 44.28125 44.578125 
Q 40.484375 46.53125 36.375 47.5 
Q 32.28125 48.484375 27.875 48.484375 
Q 21.1875 48.484375 17.84375 46.4375 
Q 14.5 44.390625 14.5 40.28125 
Q 14.5 37.15625 16.890625 35.375 
Q 19.28125 33.59375 26.515625 31.984375 
L 29.59375 31.296875 
Q 39.15625 29.25 43.1875 25.515625 
Q 47.21875 21.78125 47.21875 15.09375 
Q 47.21875 7.46875 41.1875 3.015625 
Q 35.15625 -1.421875 24.609375 -1.421875 
Q 20.21875 -1.421875 15.453125 -0.5625 
Q 10.6875 0.296875 5.421875 2 
L 5.421875 11.28125 
Q 10.40625 8.6875 15.234375 7.390625 
Q 20.0625 6.109375 24.8125 6.109375 
Q 31.15625 6.109375 34.5625 8.28125 
Q 37.984375 10.453125 37.984375 14.40625 
Q 37.984375 18.0625 35.515625 20.015625 
Q 33.0625 21.96875 24.703125 23.78125 
L 21.578125 24.515625 
Q 13.234375 26.265625 9.515625 29.90625 
Q 5.8125 33.546875 5.8125 39.890625 
Q 5.8125 47.609375 11.28125 51.796875 
Q 16.75 56 26.8125 56 
Q 31.78125 56 36.171875 55.265625 
Q 40.578125 54.546875 44.28125 53.078125 
z
" id="DejaVuSans-115"/>
     </defs>
     <g transform="translate(91 51.158437)scale(0.1 -0.1)">
      <use xlink:href="#DejaVuSans-97"/>
      <use x="61.279297" xlink:href="#DejaVuSans-110"/>
      <use x="124.658203" xlink:href="#DejaVuSans-115"/>
     </g>
    </g>
    <g id="line2d_29">
     <path d="M 63 62.336562 
L 83 62.336562 
" style="fill:none;stroke:#ff7f0e;stroke-linecap:square;stroke-width:1.5;"/>
    </g>
    <g id="line2d_30"/>
    <g id="text_14">
     <!-- max -->
     <defs>
      <path d="M 52 44.1875 
Q 55.375 50.25 60.0625 53.125 
Q 64.75 56 71.09375 56 
Q 79.640625 56 84.28125 50.015625 
Q 88.921875 44.046875 88.921875 33.015625 
L 88.921875 0 
L 79.890625 0 
L 79.890625 32.71875 
Q 79.890625 40.578125 77.09375 44.375 
Q 74.3125 48.1875 68.609375 48.1875 
Q 61.625 48.1875 57.5625 43.546875 
Q 53.515625 38.921875 53.515625 30.90625 
L 53.515625 0 
L 44.484375 0 
L 44.484375 32.71875 
Q 44.484375 40.625 41.703125 44.40625 
Q 38.921875 48.1875 33.109375 48.1875 
Q 26.21875 48.1875 22.15625 43.53125 
Q 18.109375 38.875 18.109375 30.90625 
L 18.109375 0 
L 9.078125 0 
L 9.078125 54.6875 
L 18.109375 54.6875 
L 18.109375 46.1875 
Q 21.1875 51.21875 25.484375 53.609375 
Q 29.78125 56 35.6875 56 
Q 41.65625 56 45.828125 52.96875 
Q 50 49.953125 52 44.1875 
z
" id="DejaVuSans-109"/>
      <path d="M 54.890625 54.6875 
L 35.109375 28.078125 
L 55.90625 0 
L 45.3125 0 
L 29.390625 21.484375 
L 13.484375 0 
L 2.875 0 
L 24.125 28.609375 
L 4.6875 54.6875 
L 15.28125 54.6875 
L 29.78125 35.203125 
L 44.28125 54.6875 
z
" id="DejaVuSans-120"/>
     </defs>
     <g transform="translate(91 65.836562)scale(0.1 -0.1)">
      <use xlink:href="#DejaVuSans-109"/>
      <use x="97.412109" xlink:href="#DejaVuSans-97"/>
      <use x="158.691406" xlink:href="#DejaVuSans-120"/>
     </g>
    </g>
   </g>
  </g>
 </g>
 <defs>
  <clipPath id="p1dea9d2706">
   <rect height="217.44" width="334.8" x="54" y="34.56"/>
  </clipPath>
 </defs>
</svg>
